<svg width="2000" height="718" viewBox="0 0 2000 718" fill="none" xmlns="http://www.w3.org/2000/svg">
<g clip-path="url(#clip0_512_433)">
<path d="M0 357.798L243.365 717.848L473.605 357.798L243.365 0L0 357.798Z" fill="#32075E"/>
<path d="M274.692 114.777V82.8393C387.064 77.8789 460.326 175.752 460.326 258.667V361.691L314.986 472.766H190.479C225.164 409.005 322.922 200.63 323.19 163.351C323.457 126.071 290.985 115.464 274.692 114.777Z" fill="#FDE8D7"/>
<path d="M317.275 479.596H179.07L184.527 469.599C200.438 440.332 233.52 372.832 263.55 305.523C297.052 230.278 316.321 178.499 316.397 163.465C316.769 157.203 315.566 150.947 312.9 145.269C310.234 139.591 306.19 134.67 301.135 130.955C293.27 125.434 284.019 122.222 274.425 121.683L267.9 121.416V76.4667L274.387 76.1998C298.898 75.0255 323.39 78.8776 346.356 87.5197C369.323 96.1618 390.28 109.411 407.936 126.452C445.063 161.976 467.232 211.466 467.232 258.781V365.201L317.275 479.596ZM201.774 466.05H312.658L453.572 358.371V258.666C453.572 215.625 432.433 168.654 398.435 136.144C367.234 105.727 325.247 88.9183 281.675 89.402V108.48C291.65 109.991 301.128 113.834 309.338 119.698C316.137 124.67 321.599 131.248 325.234 138.845C328.87 146.443 330.566 154.822 330.172 163.236C329.714 201.164 238.481 395.917 201.774 466.05Z" fill="#EEB995"/>
<path d="M237.871 149.118V117.142C373.633 104.703 423.505 200.095 423.505 275.913V418.659L278.126 507.145H153.658C188.305 443.346 286.101 234.971 286.368 197.691C286.635 160.412 254.126 149.766 237.871 149.118Z" fill="#FDE8D7"/>
<path d="M280.034 513.899H142.249L147.706 503.902C163.579 474.635 196.699 407.174 226.729 339.827C260.192 264.581 279.462 212.802 279.576 197.768C279.947 191.506 278.745 185.251 276.079 179.572C273.413 173.894 269.368 168.973 264.313 165.258C256.446 159.742 247.196 156.531 237.603 155.986L231.117 155.719V111.075L237.26 110.503C294.953 105.237 343.604 118.974 377.907 150.3C411.218 180.826 430.335 226.615 430.335 276.219V422.78L280.034 513.899ZM164.952 500.353H276.218L416.713 414.882V275.914C416.713 230.888 398.779 187.618 368.711 160.222C338.185 132.214 296.213 119.851 244.624 123.4V143.013C254.61 144.504 264.102 148.335 272.326 154.193C279.126 159.161 284.585 165.74 288.215 173.339C291.845 180.937 293.531 189.319 293.122 197.73C292.855 235.467 201.545 430.22 164.952 500.353Z" fill="#EEB995"/>
<path d="M201.278 185.673V153.735C368.52 128.323 388.82 246.228 386.95 303.806V432.816L241.572 543.891L130.726 517.715C165.41 453.955 249.508 271.717 249.776 234.437C250.043 197.158 217.571 186.321 201.278 185.673Z" fill="#FDE8D7"/>
<path d="M243.137 551.102L120.538 522.179L124.774 514.357C143.432 480.016 173.118 417.934 196.967 363.332C226.119 296.519 242.755 249.471 243.022 234.284C243.383 228.023 242.176 221.772 239.511 216.095C236.846 210.419 232.807 205.496 227.759 201.774C219.898 196.252 210.643 193.052 201.049 192.541L194.563 192.273V147.973L200.324 147.096C264.657 137.327 314.223 147.439 347.649 177.125C391.758 216.312 394.582 279.004 393.742 304.112V436.02L243.137 551.102ZM140.876 512.945L240.084 536.374L380.235 429.267V303.806C380.998 280.378 378.48 222.57 338.682 187.199C309.377 161.137 265.497 151.865 208.147 159.611V179.567C227.95 182.62 256.911 196.661 256.644 234.322C256.301 273.166 174.836 448.612 140.876 512.945Z" fill="#EEB995"/>
<path d="M244.281 443.728L56.2812 441.095L243.251 717.886L504.855 308.729L402.022 390.08C357.16 425.542 301.461 444.485 244.281 443.728Z" fill="#FDE8D7"/>
<path d="M450.062 369.475L243.061 693.199L82.0761 455.023L244.091 457.274H247.906C306.974 457.189 364.301 437.26 410.684 400.687L450.215 369.437M505.123 308.69L402.29 390.041C358.341 424.809 303.944 443.725 247.906 443.728H244.434L56.4346 441.096L243.404 717.886L505.009 308.729L505.123 308.69Z" fill="#EEB995"/>
<path d="M138.358 60.7842L207.041 53.1528V121.835L134.924 131.375L154.002 95.011L138.358 60.7842Z" fill="#EEB995"/>
<path d="M148.316 209.482L150.491 238.138C150.737 241.355 152.126 244.379 154.408 246.66C156.69 248.942 159.713 250.331 162.93 250.577L191.586 252.752L162.93 254.927C159.709 255.182 156.686 256.579 154.405 258.867C152.124 261.155 150.736 264.183 150.491 267.404L148.316 296.022L146.141 267.404C145.888 264.18 144.491 261.151 142.204 258.864C139.917 256.577 136.888 255.181 133.664 254.927L105.046 252.752L133.664 250.577C136.885 250.332 139.913 248.944 142.201 246.663C144.489 244.382 145.886 241.359 146.141 238.138L148.316 209.482Z" fill="white"/>
<path d="M91.5394 336.583L92.188 345.131C92.4338 348.348 93.8233 351.371 96.105 353.653C98.3867 355.934 101.41 357.324 104.627 357.57L113.174 358.218L104.627 358.867C101.407 359.122 98.3828 360.519 96.1018 362.807C93.8209 365.095 92.4328 368.123 92.188 371.344L91.5394 379.853L90.8907 371.344C90.6371 368.12 89.2411 365.091 86.9539 362.804C84.6666 360.517 81.6381 359.121 78.4134 358.867L69.9043 358.218L78.4134 357.57C81.6469 357.323 84.6845 355.924 86.9741 353.627C89.2637 351.33 90.6534 348.289 90.8907 345.054L91.5394 336.583Z" fill="white"/>
<path d="M313.841 479.443H94.1328V492.989H313.841V479.443Z" fill="#EEB995"/>
<path d="M282.858 515.616H115.311V529.161H282.858V515.616Z" fill="#EEB995"/>
<path d="M321.931 587.618C307.965 587.618 294.42 581.169 281.599 568.539C268.778 581.246 255.309 587.618 241.496 587.618H241.229C227.263 587.618 213.718 581.169 200.897 568.539C187.58 581.742 173.615 588.152 159.229 587.618L159.611 574.034C171.592 574.454 183.803 567.662 195.784 554.04L200.401 548.774L205.514 553.544L207.04 555.185C218.297 567.7 229.934 574.263 241.382 574.263H241.572C253.21 574.263 265.001 567.433 276.639 554.231L281.256 548.965L286.369 553.735L287.895 555.337C299.838 568.616 312.01 574.988 324.106 574.187L324.945 587.733L321.931 587.618Z" fill="#EEB995"/>
<path d="M241.229 640.58C227.263 640.58 213.717 634.131 200.897 621.501C197.256 625.157 193.284 628.465 189.03 631.384L181.398 619.937C186.704 616.229 191.524 611.87 195.746 606.963L200.362 601.698L205.476 606.506C205.781 606.773 206.277 607.307 207.002 608.108C218.258 620.623 229.896 627.186 241.343 627.186H241.534C253.172 627.186 264.962 620.394 276.6 607.154L281.217 601.889L286.33 606.696C286.635 606.963 287.132 607.498 287.856 608.299C290.22 611.016 292.77 613.566 295.488 615.93H298.617V629.514H290.718L288.887 628.064C286.328 626.01 283.883 623.819 281.561 621.501C268.778 634.169 255.309 640.58 241.496 640.58H241.229Z" fill="#EEB995"/>
<path d="M126.414 619.937L118.363 612L118.44 611.924L126.414 619.937Z" fill="#EEB995"/>
<path d="M1405.1 217.41V227.407C1403.34 228.416 1401.36 228.943 1399.34 228.934C1395.33 229.036 1391.4 227.785 1388.19 225.383C1384.98 222.981 1382.67 219.568 1381.63 215.693C1374.42 223.415 1364.45 227.973 1353.89 228.373C1343.33 228.773 1333.05 224.984 1325.27 217.83C1321.44 214.299 1318.34 210.045 1316.15 205.311C1313.97 200.577 1312.74 195.458 1312.54 190.248C1312.34 185.038 1313.17 179.84 1314.99 174.954C1316.81 170.068 1319.58 165.59 1323.14 161.777C1330.34 154.046 1340.31 149.482 1350.87 149.082C1361.43 148.681 1371.72 152.477 1379.49 159.641L1380.49 160.594V150.597H1392.39V207.413C1392.39 214.549 1396.21 217.41 1400.29 217.41H1405.1ZM1380.49 188.983C1380.5 183.418 1378.86 177.973 1375.78 173.339C1372.7 168.704 1368.32 165.088 1363.18 162.948C1358.04 160.807 1352.38 160.24 1346.92 161.316C1341.46 162.393 1336.45 165.065 1332.51 168.995C1328.57 172.925 1325.88 177.936 1324.79 183.393C1323.7 188.85 1324.25 194.508 1326.38 199.651C1328.5 204.794 1332.11 209.19 1336.73 212.284C1341.36 215.377 1346.8 217.029 1352.36 217.029C1356.05 217.044 1359.71 216.329 1363.13 214.926C1366.54 213.523 1369.64 211.459 1372.26 208.853C1374.87 206.246 1376.94 203.149 1378.35 199.739C1379.77 196.33 1380.49 192.674 1380.49 188.983ZM1420.17 111.601H1432.68V228.934H1420.17V111.601ZM1294.78 188.487C1294.81 196.443 1292.48 204.228 1288.09 210.867C1283.71 217.506 1277.46 222.702 1270.14 225.805C1262.84 228.88 1254.79 229.709 1247.02 228.186C1239.26 226.664 1232.12 222.859 1226.52 217.258V227.369H1214.54V109.083H1226.52V159.602C1232.12 154.001 1239.26 150.196 1247.02 148.674C1254.79 147.151 1262.84 147.98 1270.14 151.055C1277.48 154.166 1283.74 159.379 1288.13 166.04C1292.51 172.701 1294.83 180.512 1294.78 188.487ZM1282.84 188.487C1282.8 181.97 1280.5 175.67 1276.34 170.657C1272.17 165.644 1266.4 162.227 1260 160.989C1253.6 159.751 1246.98 160.767 1241.24 163.864C1235.51 166.962 1231.02 171.949 1228.55 177.979C1226.08 184.009 1225.77 190.709 1227.69 196.94C1229.6 203.17 1233.61 208.547 1239.03 212.155C1244.46 215.763 1250.97 217.38 1257.45 216.731C1263.94 216.082 1270 213.208 1274.6 208.596C1279.88 203.237 1282.85 196.013 1282.84 188.487ZM1111.75 188.983C1111.74 179.732 1114.93 170.764 1120.8 163.607C1126.66 156.449 1134.82 151.545 1143.89 149.73C1152.96 147.915 1162.38 149.301 1170.54 153.652C1178.71 158.004 1185.11 165.051 1188.66 173.593C1192.21 182.136 1192.69 191.645 1190.02 200.501C1187.34 209.357 1181.68 217.012 1173.99 222.161C1166.31 227.311 1157.08 229.637 1147.87 228.743C1138.66 227.849 1130.05 223.79 1123.5 217.258C1119.78 213.548 1116.83 209.141 1114.81 204.29C1112.79 199.438 1111.75 194.237 1111.75 188.983ZM1180.01 188.983C1180.03 183.409 1178.4 177.954 1175.32 173.308C1172.24 168.662 1167.85 165.035 1162.7 162.886C1157.56 160.737 1151.9 160.163 1146.43 161.236C1140.96 162.31 1135.93 164.983 1131.98 168.916C1128.03 172.85 1125.33 177.867 1124.24 183.333C1123.14 188.798 1123.69 194.466 1125.82 199.618C1127.95 204.771 1131.56 209.175 1136.19 212.275C1140.83 215.374 1146.27 217.029 1151.85 217.029C1155.54 217.044 1159.2 216.329 1162.62 214.927C1166.03 213.524 1169.14 211.461 1171.75 208.855C1174.37 206.249 1176.45 203.152 1177.86 199.742C1179.28 196.332 1180.01 192.676 1180.01 188.983ZM1051.57 165.135V168.607C1051.73 183.039 1046.66 197.04 1037.28 208.014C1027.91 218.987 1014.87 226.19 1000.59 228.285C986.301 230.185 971.806 226.781 959.853 218.716C947.899 210.651 939.316 198.485 935.728 184.519C931.961 170.537 933.359 155.665 939.666 142.63C945.973 129.595 956.767 119.27 970.069 113.547C983.344 108.006 998.195 107.554 1011.78 112.278C1025.37 117.002 1036.74 126.569 1043.71 139.15L1033.26 145.141C1027.98 135.502 1019.43 128.065 1009.15 124.169C998.877 120.272 987.547 120.173 977.204 123.887C966.833 127.735 958.136 135.093 952.622 144.684C947.109 154.274 945.128 165.493 947.022 176.392C948.671 187.338 954.185 197.332 962.566 204.564C970.948 211.796 981.642 215.787 992.712 215.815C1003.78 215.842 1014.5 211.905 1022.91 204.715C1031.33 197.525 1036.9 187.558 1038.6 176.62H992.81V165.173L1051.57 165.135ZM1076.64 111.715H1089.16V229.048H1076.64V111.715ZM913.673 111.715V229.048H888.375V181.734H841.327V229.048H815.876V111.715H841.327V158.839H888.375V111.715H913.673ZM805.841 134.609H777.032V229.048H752.078V134.609H723.079V111.715H805.841V134.609ZM671.032 134.419V159.03H709.189V181.924H671.032V206.574H715.562V229.239H645.353V111.906H715.562V134.609L671.032 134.419Z" fill="black"/>
<path d="M842.289 604.29H631.471V603.031C639.991 597.479 648.92 592.58 658.181 588.379V349.935C649.014 345.718 640.096 340.979 631.471 335.741V334.062H745.942V335.741C738.311 340.32 728.772 345.357 719.232 349.935V588.379L742.661 596.316H778.223L836.794 503.06H839.274C841.029 530.762 842.289 579.297 842.289 604.29Z" fill="black"/>
<path d="M947.717 350.05V588.493C956.941 592.769 965.865 597.664 974.427 603.146V604.405H859.956V603.146C868.482 597.603 877.41 592.705 886.666 588.493V350.05C877.503 345.824 868.586 341.085 859.956 335.856V334.177H974.427V335.856C966.948 340.435 957.333 345.471 947.717 350.05Z" fill="black"/>
<path d="M995.604 594.789C995.604 564.645 996.024 533.738 996.864 509.852H999.382L1060.85 598.109C1066.74 600.307 1073.01 601.306 1079.28 601.047C1109.39 601.047 1130.72 585.555 1130.72 555.259C1130.72 485.393 998.123 492.109 998.123 404.233C998.123 356.575 1038.26 329.789 1095.58 329.789C1124.46 329.789 1150.37 335.245 1170.02 345.281C1169.6 367.03 1168.8 397.136 1167.12 425.182H1165.02L1108.13 341.236C1103.04 338.748 1097.46 337.443 1091.8 337.42C1066.31 337.42 1048.72 351.653 1048.72 375.921C1048.72 443.268 1181.73 440.33 1181.73 532.784C1181.73 582.388 1139.49 609.098 1077.18 609.098C1047.46 608.984 1016.09 603.565 995.604 594.789Z" fill="black"/>
<path d="M1431.74 532.021C1431.74 576.779 1388.66 604.52 1319.21 604.52H1197.91V596.888H1224.62V350.088C1215.37 346.049 1206.44 341.304 1197.91 335.894V334.215H1322.15C1378.2 334.215 1414.99 356.804 1414.99 395.686C1414.99 426.631 1391.14 445.061 1343.06 459.713C1395.76 460.896 1431.74 489.82 1431.74 532.021ZM1285.75 459.523H1329.25C1338.14 452.155 1345.24 442.867 1350.02 432.358C1354.79 421.849 1357.13 410.394 1356.84 398.853C1356.84 359.513 1339.7 341.961 1309.18 341.961H1285.75V459.523ZM1370.23 536.218C1370.23 492.3 1348.48 467.536 1309.18 467.536H1285.75V587.997C1294.89 593.708 1305.5 596.614 1316.28 596.354C1350.16 596.43 1370.23 575.94 1370.23 536.218Z" fill="black"/>
<path d="M1449.29 469.71C1449.29 387.711 1503.66 329.979 1581.89 329.979C1660.11 329.979 1714.1 387.711 1714.1 469.71C1714.1 551.71 1660.11 608.564 1581.89 608.564C1503.66 608.564 1449.29 551.672 1449.29 469.71ZM1645.07 469.291C1645.07 377.714 1625.39 338.336 1581.89 338.336C1538.39 338.336 1518.74 377.676 1518.74 469.291C1518.74 560.906 1537.82 600.627 1581.89 600.627C1625.96 600.627 1644.96 560.906 1644.96 469.291H1645.07Z" fill="black"/>
<path d="M1985.82 334.177V342.114H1952.35V604.29H1932.28L1763.71 353.293V576.665C1775.31 584.862 1786.48 593.663 1797.17 603.031V604.29H1722.27V603.031C1732.97 593.681 1744.14 584.881 1755.73 576.665V341.999H1722.69V334.062H1821.02L1944.42 523.55V341.999H1910.53V334.062L1985.82 334.177Z" fill="black"/>
</g>
<defs>
<clipPath id="clip0_512_433">
<rect width="2000" height="717.848" fill="white"/>
</clipPath>
</defs>
</svg>
